<?xml version="1.0" standalone="no"?>
<!DOCTYPE svg PUBLIC "-//W3C//DTD SVG 20010904//EN"
 "http://www.w3.org/TR/2001/REC-SVG-20010904/DTD/svg10.dtd">
<svg version="1.0" xmlns="http://www.w3.org/2000/svg"
 width="128.000000pt" height="128.000000pt" viewBox="0 0 128.000000 128.000000"
 preserveAspectRatio="xMidYMid meet">
<metadata>
Created by potrace 1.11, written by Peter Selinger 2001-2013
</metadata>
<g transform="translate(0.000000,128.000000) scale(0.100000,-0.100000)"
fill="#000000" stroke="none">
<path d="M0 1183 l1 -98 22 26 c12 15 33 41 47 58 14 17 29 31 34 31 5 0 22
14 38 30 15 17 32 30 37 30 6 0 13 5 16 10 4 6 -30 10 -94 10 l-101 0 0 -97z"/>
<path d="M1137 1253 c10 -15 46 -55 81 -89 l62 -61 0 89 0 88 -80 0 -80 0 17
-27z"/>
<path d="M310 1092 c-14 -2 -29 -8 -34 -13 -6 -5 -18 -9 -28 -9 -10 0 -18 -6
-18 -14 0 -17 -22 -26 -48 -19 -26 6 -41 -21 -47 -84 -9 -80 4 -133 39 -165
17 -15 36 -28 44 -28 16 0 33 42 21 55 -13 13 -11 45 2 45 6 0 9 -9 6 -20 -4
-15 0 -20 14 -20 18 0 19 -5 14 -40 -4 -23 -2 -40 4 -40 6 0 6 -11 1 -29 -11
-40 -2 -76 27 -106 14 -14 22 -25 18 -25 -4 0 -2 -7 5 -15 11 -14 15 -11 31
22 17 38 18 38 15 8 -1 -17 -6 -37 -11 -45 -4 -8 4 -4 18 9 15 14 27 21 27 16
0 -4 9 0 20 10 11 10 20 13 20 7 0 -7 -4 -12 -10 -12 -5 0 -10 -7 -10 -15 0
-13 3 -13 19 2 24 22 22 74 -3 102 -21 23 -19 32 29 106 19 31 35 65 35 78 0
12 9 36 20 52 25 38 25 39 -5 71 -14 15 -25 23 -25 19 0 -4 -7 -2 -15 5 -8 7
-15 9 -15 5 0 -4 -15 9 -32 29 -37 40 -90 64 -128 58z m81 -449 c-12 -20 -14
-14 -5 12 4 9 9 14 11 11 3 -2 0 -13 -6 -23z m20 -26 c-10 -9 -11 -8 -5 6 3
10 9 15 12 12 3 -3 0 -11 -7 -18z"/>
<path d="M792 1077 c-24 -26 -30 -106 -6 -87 6 6 30 16 53 23 l41 12 -17 35
c-22 43 -42 48 -71 17z m58 -27 c0 -5 -2 -10 -4 -10 -3 0 -8 5 -11 10 -3 6 -1
10 4 10 6 0 11 -4 11 -10z"/>
<path d="M823 980 c-36 -14 -27 -19 12 -7 31 9 39 8 63 -10 53 -39 36 -116
-29 -133 -47 -13 -52 -24 -6 -16 26 5 28 4 10 -3 -23 -10 -114 -8 -132 4 -6 3
-11 3 -11 -2 1 -4 24 -26 52 -48 28 -22 64 -58 79 -79 30 -40 37 -62 17 -50
-7 4 -8 3 -4 -4 6 -10 36 -6 36 5 0 2 -11 19 -25 37 -29 38 -33 54 -7 35 15
-13 16 -12 4 3 -21 26 -4 43 21 21 19 -16 20 -16 8 0 -9 11 -10 17 -2 17 6 0
11 9 11 20 0 11 -3 20 -7 20 -13 -1 -43 -27 -43 -38 0 -16 -28 -22 -40 -7 -8
10 -8 15 2 19 7 3 2 3 -11 0 -17 -5 -21 -3 -16 6 5 8 4 11 -2 7 -6 -4 -19 1
-29 9 -19 15 -19 15 1 9 46 -16 83 -16 118 -2 34 15 36 14 42 -3 3 -10 12 -23
19 -29 18 -15 50 14 43 40 -3 10 0 20 7 22 6 2 1 2 -11 1 -21 -4 -22 -1 -19
63 1 38 6 75 9 83 5 11 1 15 -18 15 -25 0 -31 -6 -18 -19 10 -10 11 -46 1 -52
-4 -3 -8 4 -8 16 0 12 -13 28 -32 40 -36 22 -51 23 -85 10z"/>
<path d="M769 943 c-13 -16 -12 -17 4 -4 9 7 17 15 17 17 0 8 -8 3 -21 -13z"/>
<path d="M780 919 c-13 -24 -7 -49 13 -49 21 0 50 37 44 55 -9 22 -44 19 -57
-6z"/>
<path d="M654 895 c-18 -14 -17 -14 9 -5 16 6 33 8 38 4 5 -3 9 0 9 5 0 16
-33 13 -56 -4z"/>
<path d="M649 855 c-12 -12 -36 -19 -94 -25 -5 0 1 -7 15 -15 l25 -14 -37 -1
c-27 0 -42 -7 -57 -26 -34 -43 -27 -70 25 -107 26 -17 54 -37 63 -44 28 -20 7
-22 -36 -3 -37 16 -42 17 -47 3 -7 -18 19 -51 49 -64 16 -6 17 -8 3 -8 -10 -1
-25 7 -35 17 -40 39 -57 47 -29 12 15 -19 43 -42 61 -51 23 -10 31 -19 26 -28
-6 -10 -10 -9 -14 3 -9 23 -22 20 -34 -7 -11 -23 -43 -34 -43 -15 0 5 -4 6
-10 3 -5 -3 -10 -24 -10 -46 0 -28 -4 -39 -15 -39 -8 0 -15 -4 -15 -9 0 -5 -9
-13 -20 -16 -48 -15 -11 -45 56 -45 17 0 37 -6 43 -13 8 -11 3 -18 -24 -33
-19 -10 -35 -24 -35 -30 0 -6 -14 -30 -30 -52 -17 -23 -28 -42 -24 -42 9 0 31
24 58 65 15 21 26 31 26 22 0 -9 -4 -19 -10 -22 -5 -3 -10 -11 -10 -17 0 -7 5
-7 14 1 7 6 20 9 29 5 10 -3 22 4 33 21 18 27 18 27 119 23 74 -2 109 -8 128
-21 14 -9 33 -14 41 -11 19 7 20 16 4 33 -11 11 -10 13 2 9 8 -3 16 -13 16
-24 1 -10 2 -23 3 -28 1 -5 7 -3 15 3 11 9 15 9 19 -1 2 -7 8 -10 13 -5 4 4
-2 15 -15 23 -12 9 -26 27 -31 40 -7 17 -17 24 -35 24 -31 0 -88 27 -81 39 3
4 34 16 70 25 56 15 66 22 75 47 9 25 8 29 -9 29 -25 0 -50 10 -50 21 0 5 14
9 31 9 20 0 29 4 26 13 -3 6 -16 57 -28 111 -22 95 -25 100 -63 125 -51 34
-105 89 -120 123 -11 24 -14 26 -27 13z m-63 -94 c16 13 16 12 5 -8 -7 -14
-17 -20 -27 -16 -9 3 -19 1 -23 -5 -4 -7 -12 -8 -21 -2 -13 8 -13 10 1 10 9 0
20 8 23 17 6 14 9 15 16 3 7 -12 11 -12 26 1z m24 -36 c-7 -8 -17 -15 -22 -15
-6 0 -5 7 2 15 7 8 17 15 22 15 6 0 5 -7 -2 -15z m21 -9 c-9 -11 -9 -15 1 -19
8 -2 9 -8 4 -13 -5 -5 -11 -4 -13 4 -3 6 -10 9 -16 5 -7 -3 -3 3 7 15 21 24
36 31 17 8z m39 0 c0 -3 -4 -8 -10 -11 -5 -3 -10 -1 -10 4 0 6 5 11 10 11 6 0
10 -2 10 -4z m57 -28 c-3 -8 -6 -5 -6 6 -1 11 2 17 5 13 3 -3 4 -12 1 -19z
m-57 -8 c0 -5 -5 -10 -11 -10 -5 0 -7 5 -4 10 3 6 8 10 11 10 2 0 4 -4 4 -10z
m30 0 c0 -5 -5 -10 -11 -10 -5 0 -7 5 -4 10 3 6 8 10 11 10 2 0 4 -4 4 -10z
m-144 -80 c21 -10 32 -19 24 -20 -8 0 -28 9 -45 20 -38 25 -30 25 21 0z m151
-56 c-3 -3 -12 -4 -19 -1 -8 3 -5 6 6 6 11 1 17 -2 13 -5z m-117 -166 c0 -12
8 -18 25 -19 14 -1 30 -3 35 -4 6 -1 15 -3 21 -4 6 0 7 -7 2 -13 -4 -7 -8 -20
-8 -28 0 -8 -14 -17 -32 -21 -26 -5 -34 -3 -38 12 -4 10 -4 23 -1 28 3 5 -4
11 -16 14 -18 5 -19 8 -8 21 10 13 10 16 -4 16 -10 0 -15 4 -12 8 10 16 36 9
36 -10z m230 -129 c0 -6 -4 -7 -10 -4 -5 3 -10 11 -10 16 0 6 5 7 10 4 6 -3
10 -11 10 -16z m-290 -8 c0 -6 -4 -13 -10 -16 -5 -3 -10 1 -10 9 0 9 5 16 10
16 6 0 10 -4 10 -9z"/>
<path d="M905 570 c3 -5 11 -10 16 -10 6 0 7 5 4 10 -3 6 -11 10 -16 10 -6 0
-7 -4 -4 -10z"/>
<path d="M916 531 c-8 -12 3 -41 15 -41 12 0 11 17 -1 25 -6 4 -8 11 -5 16 4
5 4 9 1 9 -3 0 -7 -4 -10 -9z"/>
<path d="M460 510 c0 -5 5 -10 10 -10 6 0 10 5 10 10 0 6 -4 10 -10 10 -5 0
-10 -4 -10 -10z"/>
<path d="M1032 488 c-15 -15 -15 -23 -1 -70 11 -41 36 -51 59 -23 7 8 18 15
25 15 12 0 25 21 25 41 0 25 -89 56 -108 37z"/>
<path d="M210 470 c-9 -6 -10 -10 -3 -10 6 0 15 5 18 10 8 12 4 12 -15 0z"/>
<path d="M939 423 c-12 -15 -12 -16 4 -10 10 4 23 7 28 7 6 0 7 5 4 10 -9 15
-21 12 -36 -7z"/>
<path d="M142 370 c0 -14 2 -19 5 -12 2 6 2 18 0 25 -3 6 -5 1 -5 -13z"/>
<path d="M888 363 c7 -3 16 -2 19 1 4 3 -2 6 -13 5 -11 0 -14 -3 -6 -6z"/>
<path d="M1080 361 c0 -5 7 -11 14 -14 10 -4 13 -1 9 9 -6 15 -23 19 -23 5z"/>
<path d="M340 356 c0 -2 9 -6 20 -9 11 -3 20 -1 20 4 0 5 -9 9 -20 9 -11 0
-20 -2 -20 -4z"/>
<path d="M1158 345 c5 -11 7 -26 4 -34 -3 -8 0 -11 7 -7 15 10 14 19 -5 42
-15 19 -15 19 -6 -1z"/>
<path d="M760 336 c0 -2 9 -6 20 -9 11 -3 20 -1 20 4 0 5 -9 9 -20 9 -11 0
-20 -2 -20 -4z"/>
<path d="M1205 320 c-3 -5 1 -10 10 -10 9 0 13 5 10 10 -3 6 -8 10 -10 10 -2
0 -7 -4 -10 -10z"/>
<path d="M466 305 c4 -8 10 -12 15 -9 14 8 10 24 -6 24 -9 0 -12 -6 -9 -15z"/>
<path d="M1093 277 c0 -18 7 -44 18 -58 10 -13 19 -19 19 -12 0 6 -4 15 -10
18 -5 3 -10 18 -10 33 0 41 -16 58 -17 19z"/>
<path d="M412 281 c2 -14 9 -26 16 -29 17 -5 15 10 -3 34 -15 18 -15 18 -13
-5z"/>
<path d="M1120 266 c0 -18 6 -19 35 -6 11 5 15 9 8 9 -6 1 -18 4 -27 7 -11 4
-16 1 -16 -10z"/>
<path d="M390 235 c0 -9 6 -12 15 -9 8 4 12 10 9 15 -8 14 -24 10 -24 -6z"/>
<path d="M1210 238 c0 -8 7 -15 15 -15 18 0 15 19 -3 25 -7 2 -12 -3 -12 -10z"/>
<path d="M130 205 c-1 -5 -3 -17 -4 -25 -1 -15 -11 -16 -91 -7 -22 3 -32 3
-22 0 9 -2 17 -11 17 -19 0 -16 16 -19 22 -4 2 5 18 6 42 0 25 -5 45 -5 56 2
12 8 29 8 58 1 33 -9 39 -8 35 3 -3 8 -10 14 -17 13 -6 -1 -28 -1 -48 0 -30 1
-37 5 -41 24 -2 12 -5 18 -7 12z"/>
<path d="M1213 193 c-7 -19 4 -28 19 -16 7 6 22 13 33 15 14 3 10 6 -13 9 -24
4 -35 2 -39 -8z"/>
<path d="M935 170 c-3 -5 -1 -10 4 -10 6 0 11 5 11 10 0 6 -2 10 -4 10 -3 0
-8 -4 -11 -10z"/>
<path d="M1120 158 c0 -24 2 -25 25 -15 20 10 22 13 7 16 -9 2 -20 8 -24 15
-4 6 -8 -1 -8 -16z"/>
<path d="M1240 160 c0 -5 4 -10 8 -10 5 0 9 -7 9 -15 0 -10 -10 -15 -29 -15
-15 0 -28 -4 -28 -10 0 -5 -3 -9 -7 -9 -23 4 -35 -3 -30 -16 4 -8 2 -17 -3
-20 -6 -4 -10 -11 -10 -16 0 -6 4 -8 8 -5 5 3 8 -5 8 -17 -1 -20 5 -22 57 -25
l57 -3 0 74 c0 43 -5 78 -12 85 -15 15 -28 16 -28 2z"/>
<path d="M440 144 c0 -11 28 -33 34 -27 13 13 5 33 -14 33 -11 0 -20 -3 -20
-6z"/>
<path d="M880 134 c-24 -13 -22 -13 23 -10 45 4 80 16 44 16 -8 0 -21 2 -29 4
-7 2 -24 -2 -38 -10z"/>
<path d="M690 130 c0 -5 5 -10 10 -10 6 0 10 5 10 10 0 6 -4 10 -10 10 -5 0
-10 -4 -10 -10z"/>
<path d="M730 131 c0 -5 -12 -13 -27 -18 -46 -16 -11 -19 67 -7 69 11 71 12
28 13 -27 0 -48 6 -48 11 0 6 -4 10 -10 10 -5 0 -10 -4 -10 -9z"/>
<path d="M20 114 c0 -8 -4 -12 -10 -9 -6 4 -10 -15 -10 -50 l0 -56 44 2 c38 2
43 5 38 22 -4 14 -2 18 7 12 22 -13 -6 31 -32 52 -13 10 -22 24 -19 31 2 6 -1
12 -7 12 -6 0 -11 -7 -11 -16z"/>
<path d="M355 110 c-3 -5 3 -10 14 -10 12 0 21 5 21 10 0 6 -6 10 -14 10 -8 0
-18 -4 -21 -10z"/>
<path d="M1090 88 c0 -7 5 -20 10 -28 8 -12 10 -9 10 13 0 15 -4 27 -10 27 -5
0 -10 -6 -10 -12z"/>
<path d="M1129 100 c0 -3 -2 -13 -4 -22 -2 -10 1 -18 5 -18 15 0 19 15 9 30
-5 8 -9 13 -10 10z"/>
<path d="M401 77 c18 -14 21 -60 3 -53 -7 3 -18 -2 -24 -10 -11 -12 26 -14
273 -14 233 0 286 3 290 14 4 10 -3 13 -26 10 -18 -1 -34 -3 -37 -4 -14 -5
-140 -4 -140 0 0 3 -10 11 -21 19 -19 11 -21 11 -16 -3 5 -13 3 -15 -12 -7
-10 6 -21 8 -23 5 -5 -4 -98 -17 -123 -17 -5 1 -18 4 -27 8 -11 4 -18 3 -18
-4 0 -21 -29 -11 -49 18 -12 16 -21 31 -21 34 0 2 19 1 43 -4 23 -4 59 -8 80
-9 38 0 50 13 21 24 -24 9 -31 7 -14 -5 14 -10 -21 -9 -140 6 -29 3 -32 2 -19
-8z"/>
<path d="M608 73 c6 -2 18 -2 25 0 6 3 1 5 -13 5 -14 0 -19 -2 -12 -5z"/>
</g>
</svg>
